:FULLY-SPECIFIED
:FORCE-ALL-JOINTS-BE-3DOF
:DEGREES
1
root 6.24314 16.836 -28.1378 9.0217 -2.52979 -3.05774
lfemur -20.3712 2.30257 -19.9954
ltibia 35.927 0 0
lfoot -38.654 3.93715 0
ltoes 38.9541 0 0
rfemur -19.4747 0.22019 19.5256
rtibia 36.0342 0 0
rfoot -30.3779 -10.4967 0
rtoes 21.4483 0 0
lowerback -2.05144 3.66971 -5.03766
upperback -2.66728 5.00355 3.49279
thorax -2.36397 2.67023 6.42441
lowerneck -9.84699 -2.36864 1.94815
upperneck -1.37933 -3.32542 -1.65382
head 1.16433 -1.69823 -0.975663
lclavicle -1.65488e-14 -3.69739e-14 0
lhumerus -41.7253 -10.8128 99.8312
lradius 34.5094 0 0
lwrist 2.17521 0 0
lhand -10.5949 9.65639 0
lfingers 7.12502 0 0
lthumb 15.4107 39.062 0
rclavicle -1.65488e-14 -3.69739e-14 0
rhumerus -43.273 -4.86223 -84.2703
rradius 40.4763 0 0
rwrist 9.89469 0 0
rhand -23.7965 -22.476 0
rfingers 7.12502 0 0
rthumb 2.67393 -52.439 0
2
root 6.2349 16.8387 -28.1346 9.05299 -2.50559 -3.03466
lfemur -20.3527 2.27629 -19.9852
ltibia 35.8459 -0 0
lfoot -38.5655 3.94732 0.000157072
ltoes 38.8938 -0 0
rfemur -19.3589 0.491189 19.5229
rtibia 35.8115 -0 0
rfoot -30.2693 -10.8151 -0.00604316
rtoes 21.2443 -0 0
lowerback -2.17125 3.62432 -4.90482
upperback -2.64205 4.94498 3.41195
thorax -2.24658 2.63142 6.27423
lowerneck -9.84045 -2.3432 1.9643
upperneck -1.42431 -3.29479 -1.58442
head 1.14996 -1.68165 -0.954872
lclavicle 7.08792e-14 1.55052e-14 0
lhumerus -41.7235 -10.8498 99.7193
lradius 34.589 -0 0
lwrist 2.25784 0 0
lhand -10.6217 9.44842 0.000974034
lfingers 7.12502 -0 0
lthumb 15.3849 38.856 0.000929469
rclavicle 7.08792e-14 1.55052e-14 0
rhumerus -43.1814 -4.87253 -84.4151
rradius 40.4454 -0 0
rwrist 9.9288 0 0
rhand -23.946 -22.3546 -0.00316766
rfingers 7.12502 -0 0
rthumb 2.52955 -52.3184 -0.00303955
3
root 6.22667 16.8415 -28.1314 9.08429 -2.4814 -3.01157
lfemur -20.3342 2.25001 -19.975
ltibia 35.7648 -0 0
lfoot -38.477 3.95748 0.000298437
ltoes 38.8335 -0 0
rfemur -19.2432 0.762192 19.5207
rtibia 35.5887 -0 0
rfoot -30.1606 -11.1335 -0.0114826
rtoes 21.0403 -0 0
lowerback -2.29115 3.5792 -4.77189
upperback -2.61673 4.88645 3.33109
thorax -2.1291 2.59292 6.12397
lowerneck -9.83389 -2.31777 1.98044
upperneck -1.46925 -3.2641 -1.51504
head 1.1356 -1.66506 -0.934086
lclavicle 7.08792e-14 1.55052e-14 0
lhumerus -41.7217 -10.8869 99.6075
lradius 34.6685 -0 0
lwrist 2.34047 0 0
lhand -10.6485 9.24044 0.0018507
lfingers 7.12502 -0 0
lthumb 15.359 38.6499 0.00176603
rclavicle 7.08792e-14 1.55052e-14 0
rhumerus -43.0898 -4.88261 -84.5599
rradius 40.4145 -0 0
rwrist 9.9629 0 0
rhand -24.0955 -22.2333 -0.00601866
rfingers 7.12502 -0 0
rthumb 2.38517 -52.1978 -0.00577525
4
root 6.21843 16.8442 -28.1283 9.11561 -2.45722 -2.98846
lfemur -20.3157 2.22373 -19.9649
ltibia 35.6836 -0 0
lfoot -38.3884 3.96765 0.000424096
ltoes 38.7731 -0 0
rfemur -19.1274 1.0332 19.5191
rtibia 35.366 -0 0
rfoot -30.0519 -11.4519 -0.0163181
rtoes 20.8364 -0 0
lowerback -2.41116 3.53437 -4.63887
upperback -2.59134 4.82795 3.25021
thorax -2.01151 2.55472 5.97363
lowerneck -9.82734 -2.29233 1.99659
upperneck -1.51414 -3.23336 -1.44569
head 1.12125 -1.64846 -0.913304
lclavicle 7.08792e-14 1.55052e-14 0
lhumerus -41.7198 -10.9239 99.4956
lradius 34.7481 -0 0
lwrist 2.42309 0 0
lhand -10.6754 9.03247 0.00262999
lfingers 7.12502 -0 0
lthumb 15.3332 38.4439 0.00250966
rclavicle 7.08792e-14 1.55052e-14 0
rhumerus -42.9981 -4.89245 -84.7047
rradius 40.3835 -0 0
rwrist 9.99701 0 0
rhand -24.245 -22.1119 -0.00855296
rfingers 7.12502 -0 0
rthumb 2.24078 -52.0772 -0.00820704
5
root 6.2102 16.847 -28.1251 9.14693 -2.43306 -2.96534
lfemur -20.2971 2.19744 -19.9547
ltibia 35.6025 -0 0
lfoot -38.2999 3.97781 0.000534048
ltoes 38.7128 -0 0
rfemur -19.0116 1.30421 19.518
rtibia 35.1432 -0 0
rfoot -29.9432 -11.7703 -0.0205496
rtoes 20.6324 -0 0
lowerback -2.53126 3.48981 -4.50576
upperback -2.56587 4.76949 3.16931
thorax -1.89383 2.51683 5.82322
lowerneck -9.82077 -2.2669 2.01275
upperneck -1.55901 -3.20256 -1.37636
head 1.1069 -1.63186 -0.892526
lclavicle 7.08792e-14 1.55052e-14 0
lhumerus -41.7178 -10.9609 99.3837
lradius 34.8276 -0 0
lwrist 2.50572 0 0
lhand -10.7022 8.82449 0.00331189
lfingers 7.12502 -0 0
lthumb 15.3073 38.2379 0.00316036
rclavicle 7.08792e-14 1.55052e-14 0
rhumerus -42.9064 -4.90206 -84.8495
rradius 40.3526 -0 0
rwrist 10.0311 0 0
rhand -24.3945 -21.9905 -0.0107705
rfingers 7.12502 -0 0
rthumb 2.09639 -51.9566 -0.0103349
